<mxfile host="app.diagrams.net" agent="Mozilla/5.0 (Windows NT 10.0; Win64; x64) AppleWebKit/537.36 (KHTML, like Gecko) Chrome/121.0.0.0 Safari/537.36" version="24.7.16">
  <diagram name="PÃ¡gina-1" id="6XLkfUSnirPj5O5GOv8P">
    <mxGraphModel dx="1257" dy="789" grid="1" gridSize="10" guides="1" tooltips="1" connect="1" arrows="1" fold="1" page="1" pageScale="1" pageWidth="827" pageHeight="1169" math="0" shadow="0">
      <root>
        <mxCell id="0" />
        <mxCell id="1" parent="0" />
        <mxCell id="cDllrg2Sffgif7WTF57z-1" value="JOGADOR" style="whiteSpace=wrap;html=1;align=center;" parent="1" vertex="1">
          <mxGeometry x="120" y="540" width="100" height="40" as="geometry" />
        </mxCell>
        <mxCell id="cDllrg2Sffgif7WTF57z-2" value="EQUIPA" style="whiteSpace=wrap;html=1;align=center;" parent="1" vertex="1">
          <mxGeometry x="560" y="540" width="100" height="40" as="geometry" />
        </mxCell>
        <mxCell id="cDllrg2Sffgif7WTF57z-3" value="JOGO" style="whiteSpace=wrap;html=1;align=center;" parent="1" vertex="1">
          <mxGeometry x="340" y="780" width="100" height="40" as="geometry" />
        </mxCell>
        <mxCell id="cDllrg2Sffgif7WTF57z-9" value="Idade" style="ellipse;whiteSpace=wrap;html=1;align=center;" parent="1" vertex="1">
          <mxGeometry x="110" y="380" width="100" height="40" as="geometry" />
        </mxCell>
        <mxCell id="cDllrg2Sffgif7WTF57z-10" value="NumJogador" style="ellipse;whiteSpace=wrap;html=1;align=center;fontStyle=5" parent="1" vertex="1">
          <mxGeometry x="10" y="480" width="100" height="40" as="geometry" />
        </mxCell>
        <mxCell id="cDllrg2Sffgif7WTF57z-11" value="Nome" style="ellipse;whiteSpace=wrap;html=1;align=center;" parent="1" vertex="1">
          <mxGeometry x="240" y="440" width="100" height="40" as="geometry" />
        </mxCell>
        <mxCell id="cDllrg2Sffgif7WTF57z-15" value="" style="endArrow=none;html=1;rounded=0;exitX=1;exitY=1;exitDx=0;exitDy=0;entryX=0.25;entryY=0;entryDx=0;entryDy=0;" parent="1" source="cDllrg2Sffgif7WTF57z-10" target="cDllrg2Sffgif7WTF57z-1" edge="1">
          <mxGeometry relative="1" as="geometry">
            <mxPoint x="120" y="510" as="sourcePoint" />
            <mxPoint x="280" y="510" as="targetPoint" />
          </mxGeometry>
        </mxCell>
        <mxCell id="cDllrg2Sffgif7WTF57z-16" value="" style="endArrow=none;html=1;rounded=0;exitX=0;exitY=1;exitDx=0;exitDy=0;entryX=0.75;entryY=0;entryDx=0;entryDy=0;" parent="1" source="cDllrg2Sffgif7WTF57z-11" target="cDllrg2Sffgif7WTF57z-1" edge="1">
          <mxGeometry relative="1" as="geometry">
            <mxPoint x="105" y="524" as="sourcePoint" />
            <mxPoint x="155" y="550" as="targetPoint" />
            <Array as="points" />
          </mxGeometry>
        </mxCell>
        <mxCell id="cDllrg2Sffgif7WTF57z-17" value="" style="endArrow=none;html=1;rounded=0;exitX=0.5;exitY=1;exitDx=0;exitDy=0;entryX=0.5;entryY=0;entryDx=0;entryDy=0;" parent="1" source="cDllrg2Sffgif7WTF57z-9" target="cDllrg2Sffgif7WTF57z-1" edge="1">
          <mxGeometry relative="1" as="geometry">
            <mxPoint x="225" y="514" as="sourcePoint" />
            <mxPoint x="180" y="550" as="targetPoint" />
            <Array as="points" />
          </mxGeometry>
        </mxCell>
        <mxCell id="cDllrg2Sffgif7WTF57z-18" value="Nome" style="ellipse;whiteSpace=wrap;html=1;align=center;" parent="1" vertex="1">
          <mxGeometry x="580" y="330" width="100" height="40" as="geometry" />
        </mxCell>
        <mxCell id="cDllrg2Sffgif7WTF57z-19" value="NumJogadores" style="ellipse;whiteSpace=wrap;html=1;align=center;" parent="1" vertex="1">
          <mxGeometry x="710" y="380" width="100" height="40" as="geometry" />
        </mxCell>
        <mxCell id="cDllrg2Sffgif7WTF57z-21" value="" style="endArrow=none;html=1;rounded=0;exitX=0.5;exitY=0;exitDx=0;exitDy=0;entryX=0.5;entryY=1;entryDx=0;entryDy=0;" parent="1" source="cDllrg2Sffgif7WTF57z-2" target="cDllrg2Sffgif7WTF57z-18" edge="1">
          <mxGeometry relative="1" as="geometry">
            <mxPoint x="450" y="490" as="sourcePoint" />
            <mxPoint x="610" y="490" as="targetPoint" />
          </mxGeometry>
        </mxCell>
        <mxCell id="cDllrg2Sffgif7WTF57z-22" value="" style="endArrow=none;html=1;rounded=0;exitX=0.75;exitY=0;exitDx=0;exitDy=0;entryX=0.5;entryY=1;entryDx=0;entryDy=0;" parent="1" source="cDllrg2Sffgif7WTF57z-2" target="cDllrg2Sffgif7WTF57z-19" edge="1">
          <mxGeometry relative="1" as="geometry">
            <mxPoint x="620" y="550" as="sourcePoint" />
            <mxPoint x="620" y="470" as="targetPoint" />
          </mxGeometry>
        </mxCell>
        <mxCell id="cDllrg2Sffgif7WTF57z-23" value="" style="endArrow=none;html=1;rounded=0;exitX=0.5;exitY=1;exitDx=0;exitDy=0;entryX=0.5;entryY=0;entryDx=0;entryDy=0;" parent="1" source="cDllrg2Sffgif7WTF57z-3" target="cDllrg2Sffgif7WTF57z-24" edge="1">
          <mxGeometry relative="1" as="geometry">
            <mxPoint x="370" y="880" as="sourcePoint" />
            <mxPoint x="390" y="940" as="targetPoint" />
          </mxGeometry>
        </mxCell>
        <mxCell id="cDllrg2Sffgif7WTF57z-24" value="Campeonato" style="ellipse;whiteSpace=wrap;html=1;align=center;" parent="1" vertex="1">
          <mxGeometry x="390" y="960" width="100" height="40" as="geometry" />
        </mxCell>
        <mxCell id="cDllrg2Sffgif7WTF57z-28" value="NumJogo" style="ellipse;whiteSpace=wrap;html=1;align=center;fontStyle=5" parent="1" vertex="1">
          <mxGeometry x="450" y="880" width="100" height="40" as="geometry" />
        </mxCell>
        <mxCell id="cDllrg2Sffgif7WTF57z-29" value="" style="endArrow=none;html=1;rounded=0;exitX=0.75;exitY=1;exitDx=0;exitDy=0;entryX=0;entryY=0;entryDx=0;entryDy=0;" parent="1" source="cDllrg2Sffgif7WTF57z-3" target="cDllrg2Sffgif7WTF57z-28" edge="1">
          <mxGeometry relative="1" as="geometry">
            <mxPoint x="330" y="690" as="sourcePoint" />
            <mxPoint x="490" y="690" as="targetPoint" />
          </mxGeometry>
        </mxCell>
        <mxCell id="cDllrg2Sffgif7WTF57z-31" value="NumInterno" style="ellipse;whiteSpace=wrap;html=1;align=center;fontStyle=5" parent="1" vertex="1">
          <mxGeometry x="430" y="350" width="100" height="40" as="geometry" />
        </mxCell>
        <mxCell id="cDllrg2Sffgif7WTF57z-32" value="" style="endArrow=none;html=1;rounded=0;exitX=0.5;exitY=1;exitDx=0;exitDy=0;entryX=0.25;entryY=0;entryDx=0;entryDy=0;" parent="1" source="cDllrg2Sffgif7WTF57z-31" target="cDllrg2Sffgif7WTF57z-2" edge="1">
          <mxGeometry relative="1" as="geometry">
            <mxPoint x="710" y="600" as="sourcePoint" />
            <mxPoint x="870" y="600" as="targetPoint" />
          </mxGeometry>
        </mxCell>
        <mxCell id="cDllrg2Sffgif7WTF57z-33" value="Morada" style="ellipse;whiteSpace=wrap;html=1;align=center;" parent="1" vertex="1">
          <mxGeometry x="490" y="250" width="100" height="40" as="geometry" />
        </mxCell>
        <mxCell id="cDllrg2Sffgif7WTF57z-34" value="" style="endArrow=none;html=1;rounded=0;" parent="1" source="cDllrg2Sffgif7WTF57z-33" target="cDllrg2Sffgif7WTF57z-2" edge="1">
          <mxGeometry relative="1" as="geometry">
            <mxPoint x="490" y="400" as="sourcePoint" />
            <mxPoint x="595" y="550" as="targetPoint" />
          </mxGeometry>
        </mxCell>
        <mxCell id="cDllrg2Sffgif7WTF57z-35" value="Rua" style="ellipse;whiteSpace=wrap;html=1;align=center;" parent="1" vertex="1">
          <mxGeometry x="380" y="140" width="100" height="40" as="geometry" />
        </mxCell>
        <mxCell id="cDllrg2Sffgif7WTF57z-36" value="NumPorta" style="ellipse;whiteSpace=wrap;html=1;align=center;" parent="1" vertex="1">
          <mxGeometry x="590" y="90" width="100" height="40" as="geometry" />
        </mxCell>
        <mxCell id="cDllrg2Sffgif7WTF57z-37" value="CodPostal" style="ellipse;whiteSpace=wrap;html=1;align=center;" parent="1" vertex="1">
          <mxGeometry x="620" y="200" width="100" height="40" as="geometry" />
        </mxCell>
        <mxCell id="cDllrg2Sffgif7WTF57z-38" value="Localidade" style="ellipse;whiteSpace=wrap;html=1;align=center;" parent="1" vertex="1">
          <mxGeometry x="300" y="200" width="100" height="40" as="geometry" />
        </mxCell>
        <mxCell id="cDllrg2Sffgif7WTF57z-39" value="Pais" style="ellipse;whiteSpace=wrap;html=1;align=center;" parent="1" vertex="1">
          <mxGeometry x="500" y="140" width="100" height="40" as="geometry" />
        </mxCell>
        <mxCell id="cDllrg2Sffgif7WTF57z-40" value="AnoFundacao" style="ellipse;whiteSpace=wrap;html=1;align=center;" parent="1" vertex="1">
          <mxGeometry x="680" y="290" width="100" height="40" as="geometry" />
        </mxCell>
        <mxCell id="cDllrg2Sffgif7WTF57z-41" value="" style="endArrow=none;html=1;rounded=0;exitX=0.5;exitY=0;exitDx=0;exitDy=0;" parent="1" source="cDllrg2Sffgif7WTF57z-2" target="cDllrg2Sffgif7WTF57z-40" edge="1">
          <mxGeometry relative="1" as="geometry">
            <mxPoint x="630" y="550" as="sourcePoint" />
            <mxPoint x="640" y="380" as="targetPoint" />
          </mxGeometry>
        </mxCell>
        <mxCell id="cDllrg2Sffgif7WTF57z-42" value="" style="endArrow=none;html=1;rounded=0;" parent="1" source="cDllrg2Sffgif7WTF57z-33" target="cDllrg2Sffgif7WTF57z-37" edge="1">
          <mxGeometry relative="1" as="geometry">
            <mxPoint x="420" y="260" as="sourcePoint" />
            <mxPoint x="580" y="260" as="targetPoint" />
          </mxGeometry>
        </mxCell>
        <mxCell id="cDllrg2Sffgif7WTF57z-43" value="" style="endArrow=none;html=1;rounded=0;" parent="1" source="cDllrg2Sffgif7WTF57z-33" target="cDllrg2Sffgif7WTF57z-39" edge="1">
          <mxGeometry relative="1" as="geometry">
            <mxPoint x="586" y="266" as="sourcePoint" />
            <mxPoint x="644" y="244" as="targetPoint" />
          </mxGeometry>
        </mxCell>
        <mxCell id="cDllrg2Sffgif7WTF57z-44" value="" style="endArrow=none;html=1;rounded=0;entryX=0.31;entryY=0.9;entryDx=0;entryDy=0;entryPerimeter=0;" parent="1" source="cDllrg2Sffgif7WTF57z-33" target="cDllrg2Sffgif7WTF57z-35" edge="1">
          <mxGeometry relative="1" as="geometry">
            <mxPoint x="552" y="260" as="sourcePoint" />
            <mxPoint x="558" y="190" as="targetPoint" />
          </mxGeometry>
        </mxCell>
        <mxCell id="cDllrg2Sffgif7WTF57z-45" value="" style="endArrow=none;html=1;rounded=0;exitX=0;exitY=0;exitDx=0;exitDy=0;entryX=1;entryY=1;entryDx=0;entryDy=0;" parent="1" source="cDllrg2Sffgif7WTF57z-33" target="cDllrg2Sffgif7WTF57z-38" edge="1">
          <mxGeometry relative="1" as="geometry">
            <mxPoint x="526" y="262" as="sourcePoint" />
            <mxPoint x="421" y="186" as="targetPoint" />
          </mxGeometry>
        </mxCell>
        <mxCell id="cDllrg2Sffgif7WTF57z-46" value="" style="endArrow=none;html=1;rounded=0;exitX=1;exitY=0;exitDx=0;exitDy=0;entryX=0.5;entryY=1;entryDx=0;entryDy=0;" parent="1" source="cDllrg2Sffgif7WTF57z-33" target="cDllrg2Sffgif7WTF57z-36" edge="1">
          <mxGeometry relative="1" as="geometry">
            <mxPoint x="515" y="266" as="sourcePoint" />
            <mxPoint x="495" y="94" as="targetPoint" />
          </mxGeometry>
        </mxCell>
        <mxCell id="cDllrg2Sffgif7WTF57z-51" value="Visitante" style="ellipse;whiteSpace=wrap;html=1;align=center;" parent="1" vertex="1">
          <mxGeometry x="140" y="890" width="100" height="40" as="geometry" />
        </mxCell>
        <mxCell id="cDllrg2Sffgif7WTF57z-52" value="Visitado" style="ellipse;whiteSpace=wrap;html=1;align=center;" parent="1" vertex="1">
          <mxGeometry x="200" y="950" width="100" height="40" as="geometry" />
        </mxCell>
        <mxCell id="cDllrg2Sffgif7WTF57z-53" value="" style="endArrow=none;html=1;rounded=0;exitX=0.25;exitY=1;exitDx=0;exitDy=0;entryX=0.5;entryY=0;entryDx=0;entryDy=0;" parent="1" source="cDllrg2Sffgif7WTF57z-3" target="cDllrg2Sffgif7WTF57z-52" edge="1">
          <mxGeometry relative="1" as="geometry">
            <mxPoint x="400" y="830" as="sourcePoint" />
            <mxPoint x="400" y="950" as="targetPoint" />
          </mxGeometry>
        </mxCell>
        <mxCell id="cDllrg2Sffgif7WTF57z-54" value="" style="endArrow=none;html=1;rounded=0;exitX=0;exitY=1;exitDx=0;exitDy=0;entryX=0.5;entryY=0;entryDx=0;entryDy=0;" parent="1" source="cDllrg2Sffgif7WTF57z-3" target="cDllrg2Sffgif7WTF57z-51" edge="1">
          <mxGeometry relative="1" as="geometry">
            <mxPoint x="375" y="830" as="sourcePoint" />
            <mxPoint x="260" y="960" as="targetPoint" />
          </mxGeometry>
        </mxCell>
        <mxCell id="cDllrg2Sffgif7WTF57z-55" value="Data" style="ellipse;whiteSpace=wrap;html=1;align=center;" parent="1" vertex="1">
          <mxGeometry x="290" y="1010" width="100" height="40" as="geometry" />
        </mxCell>
        <mxCell id="cDllrg2Sffgif7WTF57z-56" value="" style="endArrow=none;html=1;rounded=0;exitX=0.5;exitY=1;exitDx=0;exitDy=0;entryX=0.5;entryY=0;entryDx=0;entryDy=0;" parent="1" source="cDllrg2Sffgif7WTF57z-3" target="cDllrg2Sffgif7WTF57z-55" edge="1">
          <mxGeometry relative="1" as="geometry">
            <mxPoint x="400" y="830" as="sourcePoint" />
            <mxPoint x="450" y="970" as="targetPoint" />
          </mxGeometry>
        </mxCell>
        <mxCell id="cDllrg2Sffgif7WTF57z-57" value="Hora" style="ellipse;whiteSpace=wrap;html=1;align=center;" parent="1" vertex="1">
          <mxGeometry x="200" y="1100" width="100" height="40" as="geometry" />
        </mxCell>
        <mxCell id="cDllrg2Sffgif7WTF57z-58" value="" style="endArrow=none;html=1;rounded=0;exitX=0;exitY=1;exitDx=0;exitDy=0;entryX=0.5;entryY=0;entryDx=0;entryDy=0;" parent="1" source="cDllrg2Sffgif7WTF57z-55" target="cDllrg2Sffgif7WTF57z-57" edge="1">
          <mxGeometry relative="1" as="geometry">
            <mxPoint x="400" y="830" as="sourcePoint" />
            <mxPoint x="350" y="1020" as="targetPoint" />
          </mxGeometry>
        </mxCell>
        <mxCell id="cDllrg2Sffgif7WTF57z-59" value="Dia" style="ellipse;whiteSpace=wrap;html=1;align=center;" parent="1" vertex="1">
          <mxGeometry x="314" y="1110" width="100" height="40" as="geometry" />
        </mxCell>
        <mxCell id="cDllrg2Sffgif7WTF57z-60" value="" style="endArrow=none;html=1;rounded=0;exitX=0.5;exitY=1;exitDx=0;exitDy=0;entryX=0.5;entryY=0;entryDx=0;entryDy=0;" parent="1" source="cDllrg2Sffgif7WTF57z-55" target="cDllrg2Sffgif7WTF57z-59" edge="1">
          <mxGeometry relative="1" as="geometry">
            <mxPoint x="315" y="1054" as="sourcePoint" />
            <mxPoint x="260" y="1110" as="targetPoint" />
          </mxGeometry>
        </mxCell>
        <mxCell id="cDllrg2Sffgif7WTF57z-61" value="Dia" style="ellipse;whiteSpace=wrap;html=1;align=center;" parent="1" vertex="1">
          <mxGeometry x="440" y="1080" width="100" height="40" as="geometry" />
        </mxCell>
        <mxCell id="cDllrg2Sffgif7WTF57z-62" value="" style="endArrow=none;html=1;rounded=0;exitX=1;exitY=1;exitDx=0;exitDy=0;entryX=0;entryY=0;entryDx=0;entryDy=0;" parent="1" source="cDllrg2Sffgif7WTF57z-55" target="cDllrg2Sffgif7WTF57z-61" edge="1">
          <mxGeometry relative="1" as="geometry">
            <mxPoint x="350" y="1060" as="sourcePoint" />
            <mxPoint x="374" y="1120" as="targetPoint" />
          </mxGeometry>
        </mxCell>
        <mxCell id="cDllrg2Sffgif7WTF57z-63" value="Resultado?" style="ellipse;whiteSpace=wrap;html=1;align=center;" parent="1" vertex="1">
          <mxGeometry x="570" y="830" width="100" height="40" as="geometry" />
        </mxCell>
        <mxCell id="cDllrg2Sffgif7WTF57z-64" value="" style="endArrow=none;html=1;rounded=0;exitX=1;exitY=1;exitDx=0;exitDy=0;entryX=0;entryY=0.5;entryDx=0;entryDy=0;" parent="1" source="cDllrg2Sffgif7WTF57z-3" target="cDllrg2Sffgif7WTF57z-63" edge="1">
          <mxGeometry relative="1" as="geometry">
            <mxPoint x="385" y="1054" as="sourcePoint" />
            <mxPoint x="465" y="1096" as="targetPoint" />
          </mxGeometry>
        </mxCell>
        <mxCell id="2sjeHM0Oi8N8ZiiBmP9--1" value="PosiÃ§Ã£o" style="ellipse;whiteSpace=wrap;html=1;align=center;" vertex="1" parent="1">
          <mxGeometry x="214" y="330" width="100" height="40" as="geometry" />
        </mxCell>
        <mxCell id="2sjeHM0Oi8N8ZiiBmP9--4" value="" style="endArrow=none;html=1;rounded=0;exitX=0.5;exitY=1;exitDx=0;exitDy=0;entryX=0.5;entryY=0;entryDx=0;entryDy=0;" edge="1" parent="1" source="2sjeHM0Oi8N8ZiiBmP9--1" target="cDllrg2Sffgif7WTF57z-1">
          <mxGeometry relative="1" as="geometry">
            <mxPoint x="170" y="440" as="sourcePoint" />
            <mxPoint x="180" y="550" as="targetPoint" />
            <Array as="points" />
          </mxGeometry>
        </mxCell>
        <mxCell id="2sjeHM0Oi8N8ZiiBmP9--5" value="Genero" style="ellipse;whiteSpace=wrap;html=1;align=center;" vertex="1" parent="1">
          <mxGeometry x="10" y="330" width="100" height="40" as="geometry" />
        </mxCell>
        <mxCell id="2sjeHM0Oi8N8ZiiBmP9--6" value="" style="endArrow=none;html=1;rounded=0;exitX=0.5;exitY=0;exitDx=0;exitDy=0;entryX=0.5;entryY=1;entryDx=0;entryDy=0;" edge="1" parent="1" source="cDllrg2Sffgif7WTF57z-1" target="2sjeHM0Oi8N8ZiiBmP9--5">
          <mxGeometry relative="1" as="geometry">
            <mxPoint x="70" y="440" as="sourcePoint" />
            <mxPoint x="230" y="440" as="targetPoint" />
          </mxGeometry>
        </mxCell>
        <mxCell id="2sjeHM0Oi8N8ZiiBmP9--7" value="DataNascimento" style="ellipse;whiteSpace=wrap;html=1;align=center;" vertex="1" parent="1">
          <mxGeometry x="270" y="510" width="100" height="40" as="geometry" />
        </mxCell>
        <mxCell id="2sjeHM0Oi8N8ZiiBmP9--8" value="" style="endArrow=none;html=1;rounded=0;exitX=0;exitY=1;exitDx=0;exitDy=0;entryX=1;entryY=0.5;entryDx=0;entryDy=0;" edge="1" parent="1" source="2sjeHM0Oi8N8ZiiBmP9--7" target="cDllrg2Sffgif7WTF57z-1">
          <mxGeometry relative="1" as="geometry">
            <mxPoint x="265" y="484" as="sourcePoint" />
            <mxPoint x="205" y="550" as="targetPoint" />
            <Array as="points" />
          </mxGeometry>
        </mxCell>
        <mxCell id="2sjeHM0Oi8N8ZiiBmP9--12" value="" style="endArrow=none;html=1;rounded=0;exitX=0.5;exitY=1;exitDx=0;exitDy=0;entryX=0.5;entryY=0;entryDx=0;entryDy=0;" edge="1" parent="1" source="cDllrg2Sffgif7WTF57z-2" target="2sjeHM0Oi8N8ZiiBmP9--13">
          <mxGeometry relative="1" as="geometry">
            <mxPoint x="590" y="660" as="sourcePoint" />
            <mxPoint x="610" y="680" as="targetPoint" />
          </mxGeometry>
        </mxCell>
        <mxCell id="2sjeHM0Oi8N8ZiiBmP9--15" value="1" style="edgeLabel;html=1;align=center;verticalAlign=middle;resizable=0;points=[];" vertex="1" connectable="0" parent="2sjeHM0Oi8N8ZiiBmP9--12">
          <mxGeometry x="-0.5695" y="-3" relative="1" as="geometry">
            <mxPoint x="13" y="-11" as="offset" />
          </mxGeometry>
        </mxCell>
        <mxCell id="2sjeHM0Oi8N8ZiiBmP9--14" style="edgeStyle=orthogonalEdgeStyle;rounded=0;orthogonalLoop=1;jettySize=auto;html=1;exitX=0.5;exitY=1;exitDx=0;exitDy=0;entryX=1;entryY=0.5;entryDx=0;entryDy=0;shape=link;" edge="1" parent="1" source="2sjeHM0Oi8N8ZiiBmP9--13" target="cDllrg2Sffgif7WTF57z-3">
          <mxGeometry relative="1" as="geometry" />
        </mxCell>
        <mxCell id="2sjeHM0Oi8N8ZiiBmP9--18" value="N" style="edgeLabel;html=1;align=center;verticalAlign=middle;resizable=0;points=[];" vertex="1" connectable="0" parent="2sjeHM0Oi8N8ZiiBmP9--14">
          <mxGeometry x="0.5439" y="-1" relative="1" as="geometry">
            <mxPoint x="-42" y="-9" as="offset" />
          </mxGeometry>
        </mxCell>
        <mxCell id="2sjeHM0Oi8N8ZiiBmP9--13" value="JOGOU" style="shape=rhombus;perimeter=rhombusPerimeter;whiteSpace=wrap;html=1;align=center;" vertex="1" parent="1">
          <mxGeometry x="550" y="680" width="120" height="60" as="geometry" />
        </mxCell>
      </root>
    </mxGraphModel>
  </diagram>
</mxfile>
